<svg width="21" height="15" viewBox="0 0 21 15" fill="none" xmlns="http://www.w3.org/2000/svg">
<path d="M6.12583 12.4057L6.15315 12.4621H6.21582H15.1352H15.1978L15.2251 12.4057L18.2332 6.19891L18.3028 6.0553H18.1432H3.20774H3.04815L3.11775 6.19891L6.12583 12.4057ZM5.25665 13.9263L0.725994 4.57754H20.6248L16.0878 13.9397H5.26314L5.25665 13.9263L5.25665 13.9263Z" fill="black" stroke="#F6F6F6" stroke-width="0.2"/>
<path d="M10.6744 8.1178C12.1855 8.1178 13.4108 6.85923 13.4108 5.31703C13.4108 3.77484 12.1855 2.51627 10.6744 2.51627C9.1631 2.51627 7.93799 3.77484 7.93799 5.31703C7.93799 6.85923 9.1631 8.1178 10.6744 8.1178ZM6.50039 5.31703C6.50039 2.95576 8.375 1.03872 10.6744 1.03872C12.9737 1.03872 14.8485 2.95577 14.8485 5.31703C14.8485 7.6783 12.9737 9.59535 10.6744 9.59535C8.375 9.59535 6.50039 7.67831 6.50039 5.31703Z" fill="black" stroke="#F6F6F6" stroke-width="0.2"/>
</svg>
