<svg width="16" height="16" viewBox="0 0 16 16" fill="none" xmlns="http://www.w3.org/2000/svg">
<g clip-path="url(#clip0_2074_631)">
<path d="M8 0.00012207C6.41775 0.00012207 4.87104 0.469314 3.55544 1.34837C2.23985 2.22742 1.21447 3.47685 0.608967 4.93866C0.00346629 6.40046 -0.15496 8.009 0.153721 9.56085C0.462403 11.1127 1.22433 12.5382 2.34315 13.657C3.46197 14.7758 4.88743 15.5377 6.43928 15.8464C7.99113 16.1551 9.59966 15.9967 11.0615 15.3912C12.5233 14.7857 13.7727 13.7603 14.6518 12.4447C15.5308 11.1291 16 9.58237 16 8.00012C15.9977 5.8791 15.1541 3.8456 13.6543 2.3458C12.1545 0.846008 10.121 0.00241612 8 0.00012207ZM8 14.6668C6.68146 14.6668 5.39253 14.2758 4.2962 13.5433C3.19987 12.8107 2.34539 11.7695 1.84081 10.5513C1.33622 9.33317 1.2042 7.99273 1.46144 6.69952C1.71867 5.40631 2.35361 4.21843 3.28596 3.28608C4.21831 2.35373 5.4062 1.71879 6.6994 1.46155C7.99261 1.20432 9.33305 1.33634 10.5512 1.84093C11.7694 2.34551 12.8106 3.19999 13.5431 4.29632C14.2757 5.39265 14.6667 6.68158 14.6667 8.00012C14.6647 9.76764 13.9617 11.4622 12.7119 12.712C11.4621 13.9618 9.76752 14.6648 8 14.6668ZM3.33334 7.35412C3.32659 7.63447 3.41092 7.90945 3.57366 8.13783C3.73641 8.3662 3.96881 8.53566 4.236 8.62079L6.48867 9.51546L7.388 11.7421C7.47285 12.0117 7.64193 12.2471 7.8704 12.4135C8.09887 12.5799 8.37468 12.6687 8.65734 12.6668H8.66667C8.95899 12.6668 9.2431 12.5701 9.47483 12.3919C9.70656 12.2137 9.8729 11.964 9.948 11.6815L11.9333 4.06679L4.30734 6.07546C4.02698 6.15184 3.77962 6.3185 3.60355 6.54965C3.42747 6.7808 3.3325 7.06355 3.33334 7.35412ZM10.0667 5.93346L8.65734 11.3335L7.51134 8.48612L4.72867 7.38079L4.65667 7.36212L10.0667 5.93346Z" fill="black"/>
</g>
<defs>
<clipPath id="clip0_2074_631">
<rect width="16" height="16" fill="white"/>
</clipPath>
</defs>
</svg>
