<svg width="16" height="16" viewBox="0 0 16 16" fill="none" xmlns="http://www.w3.org/2000/svg">
<g clip-path="url(#clip0_2074_648)">
<path d="M11.6679 0.611206C10.9172 0.622883 10.1829 0.832442 9.53911 1.21872C8.89532 1.605 8.36485 2.15432 8.00127 2.81121C7.6377 2.15432 7.10723 1.605 6.46343 1.21872C5.81963 0.832442 5.08531 0.622883 4.33461 0.611206C3.1379 0.6632 2.01041 1.18671 1.19846 2.06736C0.386514 2.94801 -0.0438927 4.11422 0.00127428 5.31121C0.00127428 9.82787 7.30527 15.0445 7.61594 15.2659L8.00127 15.5385L8.38661 15.2659C8.69727 15.0459 16.0013 9.82787 16.0013 5.31121C16.0464 4.11422 15.616 2.94801 14.8041 2.06736C13.9921 1.18671 12.8646 0.6632 11.6679 0.611206ZM8.00127 13.8972C5.83261 12.2772 1.33461 8.29721 1.33461 5.31121C1.28903 4.46768 1.57885 3.64036 2.14085 3.00967C2.70285 2.37899 3.49143 1.99611 4.33461 1.94454C5.17778 1.99611 5.96637 2.37899 6.52836 3.00967C7.09036 3.64036 7.38018 4.46768 7.33461 5.31121H8.66794C8.62237 4.46768 8.91218 3.64036 9.47418 3.00967C10.0362 2.37899 10.8248 1.99611 11.6679 1.94454C12.5111 1.99611 13.2997 2.37899 13.8617 3.00967C14.4237 3.64036 14.7135 4.46768 14.6679 5.31121C14.6679 8.29854 10.1699 12.2772 8.00127 13.8972Z" fill="black"/>
</g>
<defs>
<clipPath id="clip0_2074_648">
<rect width="16" height="16" fill="white"/>
</clipPath>
</defs>
</svg>
