<svg width="16" height="16" viewBox="0 0 16 16" fill="none" xmlns="http://www.w3.org/2000/svg">
<g clip-path="url(#clip0_2074_646)">
<path d="M8 0C3.58867 0 0 3.58867 0 8C0 12.4113 3.58867 16 8 16H16V8C16 3.58867 12.4113 0 8 0ZM14.6667 14.6667H8C4.324 14.6667 1.33333 11.676 1.33333 8C1.33333 4.324 4.324 1.33333 8 1.33333C11.676 1.33333 14.6667 4.324 14.6667 8V14.6667ZM10.6247 5.522C10.8233 6.654 10.2853 7.786 9.28533 8.33667C8.97333 8.50933 8.66667 9.08733 8.66667 9.50467V10H7.33333V9.50467C7.33333 8.712 7.82267 7.62133 8.64133 7.16933C9.15067 6.88867 9.41333 6.33267 9.31133 5.75267C9.21933 5.22867 8.77133 4.78067 8.24667 4.68867C7.84267 4.61733 7.45067 4.72 7.14333 4.978C6.84 5.23267 6.66667 5.60467 6.66667 6H5.33333C5.33333 5.21 5.68067 4.46533 6.286 3.95733C6.89133 3.44933 7.692 3.24067 8.47733 3.37533C9.55267 3.564 10.436 4.44667 10.6247 5.52267V5.522ZM7.33333 11.3333H8.66667V12.6667H7.33333V11.3333Z" fill="black"/>
</g>
<defs>
<clipPath id="clip0_2074_646">
<rect width="16" height="16" fill="white"/>
</clipPath>
</defs>
</svg>
