<svg width="16" height="16" viewBox="0 0 16 16" fill="none" xmlns="http://www.w3.org/2000/svg">
<g clip-path="url(#clip0_2074_614)">
<path d="M13.4261 16C13.1794 15.9993 12.9354 15.9498 12.708 15.8542C12.4806 15.7587 12.2745 15.619 12.1014 15.4433L8.00138 11.3673L3.90138 15.446C3.63807 15.7132 3.30038 15.8948 2.93233 15.9672C2.56428 16.0396 2.18295 15.9995 1.83805 15.852C1.48973 15.7119 1.19175 15.47 0.983023 15.1579C0.774298 14.8459 0.664529 14.4781 0.668051 14.1027V3.33333C0.668051 2.44928 1.01924 1.60143 1.64436 0.976311C2.26948 0.351189 3.11733 0 4.00138 0L12.0014 0C12.4391 0 12.8726 0.0862192 13.277 0.253735C13.6814 0.421251 14.0489 0.666782 14.3584 0.976311C14.6679 1.28584 14.9135 1.6533 15.081 2.05772C15.2485 2.46214 15.3347 2.89559 15.3347 3.33333V14.1027C15.3385 14.4778 15.2291 14.8453 15.0208 15.1574C14.8126 15.4694 14.5152 15.7115 14.1674 15.852C13.9326 15.9502 13.6805 16.0005 13.4261 16ZM4.00138 1.33333C3.47095 1.33333 2.96224 1.54405 2.58717 1.91912C2.2121 2.29419 2.00138 2.8029 2.00138 3.33333V14.1027C2.00114 14.2138 2.03383 14.3224 2.09532 14.4149C2.1568 14.5075 2.24433 14.5797 2.34684 14.6225C2.44936 14.6653 2.56226 14.6768 2.67128 14.6554C2.7803 14.6341 2.88056 14.5809 2.95938 14.5027L7.53472 9.95533C7.65963 9.83117 7.82859 9.76147 8.00472 9.76147C8.18084 9.76147 8.34981 9.83117 8.47472 9.95533L13.0447 14.5013C13.1235 14.5796 13.2238 14.6328 13.3328 14.6541C13.4418 14.6754 13.5547 14.664 13.6573 14.6212C13.7598 14.5784 13.8473 14.5061 13.9088 14.4136C13.9703 14.3211 14.003 14.2124 14.0027 14.1013V3.33333C14.0027 2.8029 13.792 2.29419 13.4169 1.91912C13.0419 1.54405 12.5332 1.33333 12.0027 1.33333H4.00138Z" fill="black"/>
</g>
<defs>
<clipPath id="clip0_2074_614">
<rect width="16" height="16" fill="white"/>
</clipPath>
</defs>
</svg>
