<svg width="1440" height="313" viewBox="0 0 1440 313" fill="none" xmlns="http://www.w3.org/2000/svg">
<rect width="1440" height="313" fill="black"/>
<path d="M1058.58 66.6212L1047.34 195.669L1167.86 269.171L1277.45 200.106L1058.58 66.6212ZM1167.75 254.089L1060.8 188.864L1069.55 88.3296L1253.12 200.285L1167.75 254.089Z" fill="white"/>
<path d="M1231.89 182.523C1254.68 164.731 1258.75 131.714 1240.96 108.922C1223.16 86.1301 1190.15 82.0625 1167.35 99.854C1144.56 117.646 1140.5 150.662 1158.29 173.454C1176.08 196.246 1209.1 200.314 1231.89 182.523ZM1167.91 165.942C1154.26 148.457 1157.38 123.127 1174.87 109.478C1192.35 95.8287 1217.68 98.9495 1231.33 116.435C1244.98 133.92 1241.86 159.249 1224.37 172.899C1206.89 186.548 1181.56 183.427 1167.91 165.942Z" fill="#7B33E5"/>
<path d="M316.024 151.355L371.935 183.769L323.397 215.561L316.024 151.355Z" fill="#FF5A21"/>
<path d="M316.024 151.355L371.935 183.769L323.397 215.561L316.024 151.355Z" fill="#FF5A21"/>
<circle cx="882.5" cy="36.5" r="18.5" fill="#7B33E5"/>
</svg>
