<svg width="170" height="34" viewBox="0 0 170 34" fill="none" xmlns="http://www.w3.org/2000/svg">
<path d="M73.425 14.1726H62.1504V32.262H67.5673V18.505H72.9305C73.8955 18.505 74.5491 18.7184 74.9283 19.1564C75.2993 19.5848 75.4789 20.3067 75.4789 21.3623V32.262H80.8952V21.5168C80.8952 16.5749 78.4515 14.1726 73.425 14.1726Z" fill="white"/>
<path d="M90.1004 8.91577H84.6855V12.1043H90.1004V8.91577Z" fill="white"/>
<path d="M90.1004 14.1714H84.6855V32.2608H90.1004V14.1714Z" fill="white"/>
<path d="M99.6907 9.53491H94.2754V32.2615H99.6907V9.53491Z" fill="white"/>
<path d="M105.227 16.0907C104.076 17.3703 103.492 18.9673 103.492 20.8369V32.2621H108.908V20.8988C108.908 19.8978 109.113 19.2116 109.534 18.8021C109.954 18.3946 110.694 18.1961 111.797 18.1961H115.68V14.1726H110.468C108.135 14.1726 106.371 14.8179 105.227 16.0907Z" fill="white"/>
<path d="M130.677 24.7925C130.677 26.0973 130.431 27.0659 129.947 27.672C129.449 28.2934 128.598 28.6083 127.416 28.6083H125.375C124.195 28.6083 123.34 28.294 122.832 27.6739C122.329 27.0597 122.085 26.117 122.085 24.7925V21.6083C122.085 20.3234 122.336 19.3638 122.832 18.7579C123.34 18.1378 124.195 17.8235 125.375 17.8235H127.416C128.598 17.8235 129.449 18.1388 129.946 18.7603H129.947C130.431 19.3663 130.677 20.3249 130.677 21.6083V24.7925ZM127.478 13.8623H125.314C122.523 13.8623 120.335 14.6056 118.809 16.0706C117.286 17.5337 116.514 19.5633 116.514 22.1032V24.3289C116.514 26.8689 117.286 28.899 118.809 30.3621C120.335 31.8267 122.523 32.5693 125.314 32.5693H127.478C130.269 32.5693 132.452 31.8272 133.967 30.3627C135.48 28.8994 136.247 26.8695 136.247 24.3289V22.1032C136.247 19.5629 135.48 17.5328 133.967 16.0696C132.452 14.605 130.269 13.8623 127.478 13.8623Z" fill="white"/>
<path d="M164.438 14.1713L162.12 27.5521C162.024 28.3208 161.641 28.4846 161.337 28.4846C161.066 28.4846 160.594 28.3619 160.491 27.5414L159.132 18.6756C158.913 17.2477 158.341 16.0579 157.432 15.1385C156.534 14.2301 155.184 13.7695 153.421 13.7695C151.844 13.7695 150.582 14.2403 149.673 15.1685C148.754 16.1072 148.198 17.2647 148.02 18.609L146.783 27.5443C146.681 28.3619 146.229 28.4846 145.968 28.4846C145.667 28.4846 145.282 28.317 145.154 27.5187L142.715 14.1713H137.588L140.287 28.0257C140.887 31.083 142.745 32.5698 145.968 32.5698C147.51 32.5698 148.785 32.1216 149.757 31.2385C150.731 30.3528 151.325 29.131 151.523 27.6071L152.637 19.1054C152.743 18.3937 153.135 18.2874 153.359 18.2874C153.594 18.2874 154.004 18.3887 154.111 19.0688L155.441 27.5705C155.679 29.1354 156.324 30.3726 157.358 31.2486C158.392 32.125 159.804 32.5698 161.553 32.5698C162.957 32.5698 164.156 32.1709 165.119 31.3847C166.081 30.6005 166.688 29.4928 166.924 28.0933L169.2 14.1713H164.438Z" fill="white"/>
<path d="M15.0241 29.6462L7.02438 13.538H46.7438L38.7442 29.6462H15.0241ZM0 9.18384L12.2339 33.8188L12.3239 33.9999H41.4444L53.7678 9.18384H0Z" fill="#7B33E5"/>
<path d="M33.8972 11.3628C33.8972 15.2278 30.7517 18.3719 26.8859 18.3719C23.0196 18.3719 19.8746 15.2278 19.8746 11.3628C19.8746 7.49781 23.0196 4.35364 26.8859 4.35364C30.7517 4.35364 33.8972 7.49781 33.8972 11.3628ZM26.8859 0C20.6179 0 15.5195 5.09732 15.5195 11.3628C15.5195 17.6283 20.6179 22.7256 26.8859 22.7256C33.1534 22.7256 38.2523 17.6283 38.2523 11.3628C38.2523 5.09732 33.1534 0 26.8859 0Z" fill="#FF5A21"/>
</svg>
