<svg width="170" height="34" viewBox="0 0 170 34" fill="none" xmlns="http://www.w3.org/2000/svg">
<path d="M73.7713 14.1726H62.4434V32.262H67.8858V18.505H73.2744C74.244 18.505 74.9007 18.7184 75.2817 19.1564C75.6544 19.5848 75.8349 20.3067 75.8349 21.3623V32.262H81.2768V21.5168C81.2768 16.5749 78.8216 14.1726 73.7713 14.1726Z" fill="#FF5A21"/>
<path d="M90.5263 8.91577H85.0859V12.1043H90.5263V8.91577Z" fill="#FF5A21"/>
<path d="M90.5263 14.1714H85.0859V32.2608H90.5263V14.1714Z" fill="#FF5A21"/>
<path d="M100.162 9.53491H94.7207V32.2615H100.162V9.53491Z" fill="#FF5A21"/>
<path d="M105.726 16.0907C104.569 17.3703 103.982 18.9673 103.982 20.8369V32.2621H109.424V20.8988C109.424 19.8978 109.63 19.2116 110.053 18.8021C110.475 18.3946 111.218 18.1961 112.327 18.1961H116.228V14.1726H110.991C108.647 14.1726 106.875 14.8179 105.726 16.0907V16.0907Z" fill="#FF5A21"/>
<path d="M131.295 24.7925C131.295 26.0973 131.048 27.0659 130.561 27.672C130.061 28.2934 129.206 28.6083 128.019 28.6083H125.968C124.783 28.6083 123.923 28.294 123.413 27.6739C122.908 27.0597 122.662 26.117 122.662 24.7925V21.6083C122.662 20.3234 122.914 19.3638 123.413 18.7579C123.923 18.1378 124.783 17.8235 125.968 17.8235H128.019C129.206 17.8235 130.061 18.1388 130.56 18.7603H130.561C131.048 19.3663 131.295 20.3249 131.295 21.6083V24.7925ZM128.081 13.8623H125.906C123.102 13.8623 120.903 14.6056 119.37 16.0706C117.84 17.5337 117.064 19.5633 117.064 22.1032V24.3289C117.064 26.8689 117.84 28.899 119.37 30.3621C120.903 31.8267 123.102 32.5693 125.906 32.5693H128.081C130.885 32.5693 133.078 31.8272 134.601 30.3627C136.121 28.8994 136.891 26.8695 136.891 24.3289V22.1032C136.891 19.5629 136.121 17.5328 134.601 16.0696C133.078 14.605 130.885 13.8623 128.081 13.8623Z" fill="#FF5A21"/>
<path d="M165.215 14.1713L162.886 27.5521C162.79 28.3208 162.405 28.4846 162.1 28.4846C161.827 28.4846 161.353 28.3619 161.249 27.5414L159.884 18.6756C159.664 17.2477 159.09 16.0579 158.176 15.1385C157.274 14.2301 155.918 13.7695 154.146 13.7695C152.562 13.7695 151.294 14.2403 150.381 15.1685C149.458 16.1072 148.899 17.2647 148.72 18.609L147.477 27.5443C147.375 28.3619 146.92 28.4846 146.658 28.4846C146.356 28.4846 145.969 28.317 145.84 27.5187L143.39 14.1713H138.238L140.95 28.0257C141.553 31.083 143.42 32.5698 146.658 32.5698C148.207 32.5698 149.488 32.1216 150.465 31.2385C151.443 30.3528 152.04 29.131 152.239 27.6071L153.358 19.1054C153.465 18.3937 153.859 18.2874 154.084 18.2874C154.32 18.2874 154.732 18.3887 154.84 19.0688L156.176 27.5705C156.415 29.1354 157.063 30.3726 158.102 31.2486C159.141 32.125 160.559 32.5698 162.317 32.5698C163.727 32.5698 164.932 32.1709 165.9 31.3847C166.866 30.6005 167.476 29.4928 167.714 28.0933L170 14.1713H165.215V14.1713Z" fill="#FF5A21"/>
<path d="M15.0951 29.6462L7.05759 13.538H46.9648L38.9274 29.6462H15.0951ZM0 9.18384L12.2918 33.8188L12.3822 33.9999H41.6403L54.022 9.18384H0Z" fill="#7B33E5"/>
<path d="M34.0583 11.3628C34.0583 15.2278 30.898 18.3719 27.0139 18.3719C23.1293 18.3719 19.9694 15.2278 19.9694 11.3628C19.9694 7.49781 23.1293 4.35364 27.0139 4.35364C30.898 4.35364 34.0583 7.49781 34.0583 11.3628ZM27.0139 0C20.7163 0 15.5938 5.09732 15.5938 11.3628C15.5938 17.6283 20.7163 22.7256 27.0139 22.7256C33.311 22.7256 38.434 17.6283 38.434 11.3628C38.434 5.09732 33.311 0 27.0139 0Z" fill="#FF5A21"/>
</svg>
