<svg width="19" height="19" viewBox="0 0 19 19" fill="none" xmlns="http://www.w3.org/2000/svg">
<path d="M18.7559 17.8452L14.0656 13.155C15.284 11.6649 15.883 9.76356 15.7388 7.84422C15.5946 5.92488 14.7182 4.13439 13.2908 2.84311C11.8635 1.55182 9.99449 0.858533 8.07034 0.906643C6.14619 0.954753 4.31415 1.74058 2.95314 3.10158C1.59214 4.46258 0.806315 6.29463 0.758206 8.21878C0.710096 10.1429 1.40338 12.012 2.69467 13.4393C3.98596 14.8666 5.77644 15.743 7.69578 15.8872C9.61512 16.0314 11.5165 15.4324 13.0065 14.2141L17.6968 18.9043L18.7559 17.8452ZM8.26984 14.4103C7.08474 14.4103 5.92624 14.0589 4.94086 13.4005C3.95548 12.742 3.18747 11.8062 2.73395 10.7113C2.28043 9.61643 2.16177 8.41163 2.39297 7.2493C2.62417 6.08696 3.19486 5.01929 4.03285 4.18129C4.87085 3.34329 5.93853 2.77261 7.10086 2.54141C8.2632 2.3102 9.46799 2.42887 10.5629 2.88239C11.6578 3.33591 12.5936 4.10392 13.252 5.0893C13.9104 6.07468 14.2619 7.23317 14.2619 8.41828C14.2601 10.0069 13.6282 11.53 12.5049 12.6533C11.3815 13.7766 9.85848 14.4085 8.26984 14.4103Z" fill="#6A6A6A"/>
</svg>
