<svg width="25" height="25" viewBox="0 0 25 25" fill="none" xmlns="http://www.w3.org/2000/svg">
<path d="M25 23.529L18.4858 17.0148C20.1779 14.9453 21.0099 12.3045 20.8096 9.63878C20.6093 6.97303 19.3921 4.48625 17.4097 2.69279C15.4273 0.899341 12.8314 -0.0635603 10.159 0.00325877C7.48658 0.0700778 4.94207 1.1615 3.05179 3.05179C1.1615 4.94207 0.0700778 7.48658 0.00325877 10.159C-0.0635603 12.8314 0.899341 15.4273 2.69279 17.4097C4.48625 19.3921 6.97303 20.6093 9.63878 20.8096C12.3045 21.0099 14.9453 20.1779 17.0148 18.4858L23.529 25L25 23.529ZM10.4361 18.7583C8.79011 18.7583 7.18109 18.2702 5.8125 17.3558C4.44392 16.4413 3.37724 15.1416 2.74735 13.6209C2.11746 12.1002 1.95265 10.4269 2.27377 8.8125C2.59488 7.19815 3.3875 5.71527 4.55138 4.55138C5.71527 3.3875 7.19815 2.59488 8.8125 2.27377C10.4269 1.95265 12.1002 2.11746 13.6209 2.74735C15.1416 3.37724 16.4413 4.44392 17.3558 5.8125C18.2702 7.18109 18.7583 8.79011 18.7583 10.4361C18.7558 12.6425 17.8782 14.7579 16.3181 16.3181C14.7579 17.8782 12.6425 18.7558 10.4361 18.7583Z" fill="white"/>
</svg>
