<svg width="70" height="70" viewBox="0 0 70 70" fill="none" xmlns="http://www.w3.org/2000/svg">
<circle cx="35" cy="35" r="34.6828" stroke="#7B33E5" stroke-width="0.634409"/>
<rect x="8" y="8" width="54" height="54" rx="27" fill="#7B33E5"/>
<path d="M33.6791 29.6611L12.7008 50.643C11.8389 51.5673 11.3694 52.7901 11.3914 54.0537C11.4133 55.3174 11.925 56.5232 12.8185 57.4169C13.7121 58.3107 14.9177 58.8226 16.1813 58.8449C17.4449 58.8671 18.6678 58.3979 19.5923 57.5362L40.5753 36.5575L33.6791 29.6611ZM36.0744 36.5575L31.9587 40.6733L29.5713 38.278L33.6871 34.1621L36.0744 36.5575ZM17.3418 55.2889C17.0201 55.5956 16.5926 55.7666 16.1481 55.7666C15.7037 55.7666 15.2762 55.5956 14.9545 55.2889C14.6384 54.972 14.4609 54.5427 14.4609 54.0952C14.4609 53.6476 14.6384 53.2183 14.9545 52.9015L27.3193 40.5348L29.7146 42.9302L17.3418 55.2889ZM45.2211 44.0523L49.4658 46.1754L45.2211 48.305L43.0995 52.5418L40.978 48.305L36.7333 46.1754L40.978 44.0523L43.0995 39.8091L45.2211 44.0523ZM21.8793 29.2584L17.6347 27.1369L21.8793 25.0153L24.0009 20.7705L26.1224 25.0153L30.3671 27.1369L26.1224 29.2584L24.0009 33.5032L21.8793 29.2584ZM42.038 28.1984L38.3249 26.3411L42.038 24.4837L43.8953 20.7705L45.7527 24.4837L49.4658 26.3411L45.7527 28.1984L43.8953 31.9116L42.038 28.1984Z" fill="white"/>
</svg>
