<svg width="70" height="70" viewBox="0 0 70 70" fill="none" xmlns="http://www.w3.org/2000/svg">
<circle cx="35" cy="35" r="34.6828" stroke="black" stroke-width="0.634409"/>
<g clip-path="url(#clip0_2142_372)">
<rect x="8" y="8" width="54" height="54" rx="27" fill="black"/>
<g clip-path="url(#clip1_2142_372)">
<path d="M55.4939 41.3642C55.4939 41.2063 55.4719 41.0484 55.4294 40.8972L53.4394 33.9372C52.4036 30.312 49.045 27.7803 45.2754 27.7803H24.959C21.1895 27.7803 17.8325 30.312 16.7951 33.9372L14.8084 40.8972C14.766 41.0484 14.7422 41.2063 14.7422 41.3642C14.7422 43.0826 15.384 44.6532 16.4402 45.852V61.7401C16.4402 65.4858 19.4864 68.532 23.2321 68.532H33.4201C37.1658 68.532 40.212 65.4858 40.212 61.7401V47.2443C40.8505 46.8742 41.4244 46.4021 41.91 45.852C43.1546 47.2647 44.9766 48.1561 47.004 48.1561H48.702C49.2878 48.1561 49.8566 48.0814 50.4 47.9405V66.834C50.4 67.7713 51.159 68.532 52.098 68.532C53.0369 68.532 53.7959 67.7713 53.7959 66.834V45.852C54.8521 44.6549 55.4939 43.0826 55.4939 41.3642ZM33.4201 65.136H23.2321C21.3593 65.136 19.8362 63.6129 19.8362 61.7401V58.3441H36.8161V61.7401C36.8161 63.6129 35.293 65.136 33.4201 65.136ZM36.8161 54.9481H19.8362V47.9405C20.3795 48.0814 20.9483 48.1561 21.5341 48.1561H23.2321C25.2595 48.1561 27.0798 47.263 28.3261 45.852C29.5724 47.2647 31.3927 48.1561 33.4201 48.1561H36.8161V54.9481ZM47.004 44.7602C45.1311 44.7602 43.608 43.2371 43.608 41.3642C43.608 40.4269 42.849 39.6662 41.91 39.6662C40.971 39.6662 40.212 40.4269 40.212 41.3642C40.212 43.2371 38.6889 44.7602 36.8161 44.7602H33.4201C31.5472 44.7602 30.0241 43.2371 30.0241 41.3642C30.0241 40.4269 29.2634 39.6662 28.3261 39.6662C27.3888 39.6662 26.6281 40.4269 26.6281 41.3642C26.6281 43.2371 25.105 44.7602 23.2321 44.7602H21.5341C20.7021 44.7602 19.938 44.4579 19.3471 43.9604C19.2979 43.9112 19.247 43.8653 19.1926 43.8212C18.5915 43.249 18.1993 42.4594 18.145 41.5798L20.0603 34.8711C20.6818 32.696 22.6956 31.1763 24.959 31.1763H26.6281V34.5722C26.6281 35.5095 27.3888 36.2702 28.3261 36.2702C29.2634 36.2702 30.0241 35.5095 30.0241 34.5722V31.1763H40.212V34.5722C40.212 35.5095 40.971 36.2702 41.91 36.2702C42.849 36.2702 43.608 35.5095 43.608 34.5722V31.1763H45.2754C47.5372 31.1763 49.5527 32.696 50.1741 34.8711L52.0912 41.5798C51.9808 43.3525 50.5018 44.7619 48.702 44.7619H47.004V44.7602Z" fill="#FF5A21"/>
</g>
</g>
<defs>
<clipPath id="clip0_2142_372">
<rect x="8" y="8" width="54" height="54" rx="27" fill="white"/>
</clipPath>
<clipPath id="clip1_2142_372">
<rect width="40.7517" height="40.7517" fill="white" transform="translate(14.7422 27.7803)"/>
</clipPath>
</defs>
</svg>
